<?xml version="1.0" encoding="UTF-8"?>
<svg xmlns="http://www.w3.org/2000/svg" xmlns:xlink="http://www.w3.org/1999/xlink" viewBox="0 0 122.78 122.78">
    <defs>
        <linearGradient id="a1" x1="82.82" y1="16.85" x2="24.78" y2="86.4"
                        gradientUnits="userSpaceOnUse">
            <stop offset="0" stop-color="#604314"/>
            <stop offset=".21" stop-color="#b99153"/>
            <stop offset=".32" stop-color="#725321"/>
            <stop offset=".42" stop-color="#604314"/>
            <stop offset=".53" stop-color="#725321"/>
            <stop offset=".8" stop-color="#b99153"/>
            <stop offset="1" stop-color="#604314"/>
        </linearGradient>
        <linearGradient id="a2" x1="95.22" y1="27.41" x2="37.24" y2="96.88"
                        xlink:href="#a1"/>
        <linearGradient id="a3" x1="93.35" y1="25.79" x2="35.26" y2="95.39"
                        xlink:href="#a1"/>
        <linearGradient id="a4" x1="99.19" y1="30.89" x2="41.2" y2="100.37"
                        xlink:href="#a1"/>
        <linearGradient id="a5" x1="116.39" y1="45.43" x2="58.46" y2="114.83"
                        xlink:href="#a1"/>
        <linearGradient id="a6" x1="114.87" y1="44.51" x2="57.24" y2="113.57"
                        xlink:href="#a1"/>
    </defs>
    <g>
        <g>
            <path fill="url(#a1)" stroke-width="0"
                  d="M21.08,70.74c5.31,30.23,29.28,30.73,29.28,30.73,0,0-14.53-8.18-16.16-22.12-1.63-13.94,0-21.01-1.2-25.73-1.58-6.58-11.56-8.93-11.56-8.93.71,3.95-2.22,15.53-.37,26.06Z"/>
            <path fill="url(#a2)" stroke-width="0"
                  d="M58.42,101.62s-14.72-7.11-9.66-25.73c2.68-7.54,5.22-9.39,2.01-25.32-4.57,7.24-7.51,8.29-10.16,12.66-3.66,6.27-6.45,32.89,17.81,38.39Z"/>
            <path fill="url(#a3)" stroke-width="0"
                  d="M69.41,74.35c3.99,10.39,4.57,21.22-3.63,27.43,0,0,18.65-3.8,15.82-28.71-2.47-19.5-16.62-29.83-20.43-34.11-3.81-4.28-8.67-13.15-8.67-13.15,0,0-7.51,17.45,3.16,29.41,7.87,8.67,9.76,8.74,13.75,19.13Z"/>
            <path fill="url(#a4)" stroke-width="0"
                  d="M85.17,71.44c.22,11.3-.22,20.43-10.67,30.02,0,0,19.59-3.47,20.24-22.67.65-19.2,1.09-21.07-11.1-54.21-4.24-11.08-4.79-19.09-4.79-19.09,0,0-11.21,8.34-9.25,24.69,1.96,16.35,15.35,29.96,15.56,41.26Z"/>
            <path fill="url(#a5)" stroke-width="0"
                  d="M90.56,95.03s9.8-5.38,15.46-20.74c5.66-15.36-1.53-34.38-1.53-34.38,0,0-5.41,3.29-7.04,9.49-1.34,5.08,5.63,32.46-6.88,45.63Z"/>
            <path fill="url(#a6)" stroke-width="0"
                  d="M91.92,109.63c24.52-8.09,28.08-21.36,28.08-21.36-20.53-.22-24.45,5.41-35.34,13.9-10.88,8.49-26.65,8.07-26.65,8.07,0,0-14.48-10.75-30.53-10.64-16.05.11-24.71,14.27-24.71,14.27.54-.71,10.5-5.32,18.61-6.2,8.11-.88,15.29,1.48,17.41,2.08,2.12.6,1.47,1.43,1.47,1.43-4.95-.88-19.16-.55-19.16-.55,7.93,3.26,30.26,7.85,51.28,6.4,20.01-1.38,43.03-7.9,43.03-7.9-4.35.59-23,1.61-23.8,1.68-.8.07-1.07-.73.29-1.17Z"/>
        </g>
    </g>
</svg>