<?xml version="1.0" standalone="no"?><!DOCTYPE svg PUBLIC "-//W3C//DTD SVG 1.1//EN" "http://www.w3.org/Graphics/SVG/1.1/DTD/svg11.dtd"><svg t="1757212076632" class="icon" viewBox="0 0 1024 1024" version="1.1" xmlns="http://www.w3.org/2000/svg" p-id="8255" xmlns:xlink="http://www.w3.org/1999/xlink" width="200" height="200"><path d="M134.829987 0.0001C60.459994-0.0899 0.09 60.120094 0 134.480087v754.779926c0.07 74.419993 60.409994 134.719987 134.829987 134.739987h754.349926c74.539993 0 134.829987-60.589994 134.829987-134.829987V134.830087C1023.9999 60.290094 963.409906 0.0001 889.169913 0.0001" fill="#5368FF" p-id="8256"></path><path d="M470.609954 149.080085h103.63999c24.509998-0.02 44.389996 19.819998 44.419996 44.329996V228.570078c0.1 3.3-2.49 6.049999-5.79 6.149999-0.55 0.02-1.1-0.04-1.63-0.18a329.065968 329.065968 0 0 0-87.169991-11.779999c-30.499997-0.04-60.859994 4.23-90.149991 12.669999-4.05 0.9-7.769999-1.92-7.77-5.969999v-35.969997c0-24.459998 19.869998-44.299996 44.419996-44.369996l0.03-0.04z m-185.599982 94.719991c11.999999-0.13 23.549998 4.58 31.999997 13.059999l17.659998 17.749998c2.48 2.77 2.18 7.119999-0.94 8.959999a321.639969 321.639969 0 0 0-40.149996 34.179997 340.231967 340.231967 0 0 0-33.829996 39.769996c-2.48 2.77-6.529999 3.41-9.339999 0.68L232.999977 340.740067c-17.389998-17.309998-17.419998-45.409996-0.05-62.749994l0.05-0.05 21.159998-21.079998a44.491996 44.491996 0 0 1 30.849997-13.009999v-0.05z m238.809977 14.929999c159.619984-0.31 289.269972 128.849987 289.579972 288.469972v0.719999c-0.02 159.859984-129.629987 289.429972-289.489972 289.409972h-0.08c-159.909984 0-289.659972-129.189987-289.659972-289.149972 0.05-159.909984 129.719987-289.499972 289.619972-289.449971h0.08-0.05z m0 85.679991c-112.589989 0-203.90998 91.189991-204.07998 203.77998 0.19 112.569989 91.499991 203.72998 204.07998 203.729981 112.569989 0.16 203.94998-90.949991 204.11998-203.519981v-0.21c-0.15-112.629989-91.499991-203.82998-204.11998-203.77998z m6.179999 35.749997c58.289994 2.14 111.289989 34.249997 139.989987 84.819992 1.54 3.11 0.64 6.829999-2.43 8.359999l-135.079987 69.889993c-3.97 2.22-8.749999-0.98-8.749999-5.33V386.130062h0.09c0-3.41 3.07-5.929999 6.189999-5.929999l-0.01-0.04z" fill="#FFFFFF" p-id="8257"></path></svg>