<svg width="48" height="48" viewBox="0 0 48 48" fill="none" xmlns="http://www.w3.org/2000/svg">
<path d="M22.7175 30.4125L24.84 32.535L32.7075 24.6675L24.84 16.8075L22.7175 18.93L26.9625 23.1675H4.50751V26.1675H26.9625L22.7175 30.4125Z" fill="#FF6633"/>
<path d="M38.5725 10.335L37.545 10.1925C33.2007 9.55071 29.168 7.55932 26.0175 4.5L25.125 3.495H22.875L22.005 4.5C18.8635 7.55932 14.8379 9.55111 10.5 10.1925L9.47251 10.335L8.18251 11.835V20.25H11.1825V13.125C16.0024 12.3483 20.4725 10.1251 24 6.75C27.5411 10.1312 32.0274 12.3547 36.8625 13.125V22.425C36.8625 34.695 25.5 41.0475 24 41.8125C22.8525 41.25 15.435 37.0725 12.4275 29.25H9.24751C12.555 39.3225 22.3125 44.3175 22.8075 44.565L23.34 44.835H24.6825L25.215 44.565C25.815 44.2725 39.8625 37.065 39.8625 22.425V11.82L38.5725 10.335Z" fill="#FF6633"/>
</svg>
